# xmcd CD database file
#
# Track frame offsets:
#	150
#	17145
#	35878
#	56972
#	73112
#	89473
#	112120
#	129984
#	147929
#	170382
#
# Disc length: 2537 seconds
#
# Revision: 1
# Processed by: cddbd v1.5.2PL0 Copyright (c) Steve Scherf et al.
# Submitted via: CDex 1.51
#
DISCID=9609e70a
DTITLE=Mark Wehner - that's the way it goes
DYEAR=2003
DGENRE=Country
TTITLE0=that's the way it goes
TTITLE1=better off than me
TTITLE2=it might as well rain
TTITLE3=dixie flyer
TTITLE4=i was doing fine
TTITLE5=the flood of '98
TTITLE6=love is all that it is
TTITLE7=remember i love you
TTITLE8=robert david walker
TTITLE9=one more town
EXTD=YEAR: 2003
EXTT0=
EXTT1=
EXTT2=
EXTT3=
EXTT4=
EXTT5=
EXTT6=
EXTT7=
EXTT8=
EXTT9=
PLAYORDER=
